<?xml version="1.0" encoding="UTF-8"?>
<svg width="1167px" height="679px" viewBox="0 0 1167 679" version="1.1" xmlns="http://www.w3.org/2000/svg" xmlns:xlink="http://www.w3.org/1999/xlink">
    <title>topo-bg</title>
    <g id="topo-bg" stroke="none" stroke-width="1" fill="none" fill-rule="evenodd" fill-opacity="0.1">
        <g id="topo" fill="#B8BC86" fill-rule="nonzero">
            <path d="M1166.62978,292.347121 C1163.01978,291.177121 1159.03978,290.607121 1155.85978,288.707121 C1148.00978,284.037121 1145.62978,276.157121 1145.11978,267.587121 C1144.59978,258.677121 1146.11978,249.967121 1148.11978,241.357121 C1151.07198,228.703646 1150.37853,215.472663 1146.11978,203.197121 C1144.49978,198.377121 1143.02978,193.507121 1141.60978,188.627121 C1138.27978,177.167121 1130.38978,171.317121 1118.82978,169.937121 C1114.45978,169.417121 1110.03978,169.197121 1105.66978,168.587121 C1095.05978,167.117121 1091.14978,160.967121 1092.97978,150.527121 C1094.03978,144.467121 1096.69978,138.667121 1098.87978,132.837121 C1100.28978,129.067121 1101.78978,125.427121 1101.63978,121.277121 C1101.62746,118.408093 1100.39912,115.678853 1098.25978,113.767121 C1095.37978,111.157121 1092.51978,108.497121 1088.74978,107.177121 C1079.24978,103.837121 1069.89978,99.9871206 1060.22978,97.2871206 C1049.22978,94.2171206 1039.22978,97.4471206 1030.09978,104.057121 C1022.09978,109.867121 1014.09978,115.727121 1004.79978,119.567121 C997.822299,122.364088 990.386505,123.842431 982.869782,123.927121 C969.729782,124.307121 956.869782,122.117121 943.869782,120.677121 C935.929782,119.797121 927.999782,118.987121 919.969782,119.897121 C908.149782,121.217121 899.969782,127.687121 894.479782,137.777121 C887.263201,150.907523 883.373158,165.605912 883.149782,180.587121 C882.785567,196.276048 885.122985,211.910707 890.059782,226.807121 C892.959782,235.607121 891.299782,243.287121 884.199782,249.727121 C876.569782,256.657121 868.649782,263.167121 859.029782,267.037121 C855.511382,268.528012 851.708434,269.227837 847.889782,269.087121 C838.959782,268.437121 834.159782,262.357121 834.219782,251.987121 C834.219782,245.987121 835.459782,240.067121 835.759782,234.087121 C836.224699,227.632822 836.244746,221.154173 835.819782,214.697121 C835.569782,211.827121 833.699782,208.627121 831.629782,206.477121 C827.689782,202.377121 820.489782,203.377121 816.259782,208.147121 C811.089782,213.977121 809.199782,220.917121 809.989782,228.547121 C810.719782,235.667121 812.519782,242.757121 812.499782,249.857121 C812.499782,269.067121 803.819782,283.457121 786.709782,292.617121 C773.539782,299.617121 759.379782,302.977121 744.649782,304.437121 C731.479782,305.747121 718.189782,306.577121 705.579782,311.057121 C698.679782,313.497121 691.949782,316.447121 685.199782,319.297121 C670.019782,325.697121 654.029782,328.887121 637.869782,331.407121 C629.309782,332.740454 620.756449,334.117121 612.209782,335.537121 C599.209782,337.677121 586.649782,335.837121 574.469782,331.017121 C569.469782,329.017121 564.469782,327.187121 559.719782,324.877121 C549.469782,319.877121 545.039782,312.137121 546.199782,300.767121 C547.639782,286.587121 549.589782,272.467121 553.629782,258.767121 C556.507481,248.912529 560.820394,239.535312 566.429782,230.937121 C572.929782,220.937121 582.349782,215.167121 593.589782,211.747121 C601.325098,209.433326 608.929548,206.702668 616.369782,203.567121 C622.769782,200.817121 627.369782,195.627121 632.469782,190.837121 C639.169782,184.477121 642.789782,176.377121 647.699782,169.027121 C654.055331,159.394103 662.704324,151.490772 672.869782,146.027121 C685.180554,139.48045 695.23132,129.373923 701.709782,117.027121 C705.589782,109.717121 707.509782,102.027121 704.009782,94.0271206 C701.199782,87.5771206 695.769782,83.6371206 689.749782,80.5671206 C686.219742,78.883689 682.597287,77.4013204 678.899782,76.1271206 C677.429782,75.5771206 675.759782,75.5671206 674.279782,75.0371206 C670.989782,73.8671206 667.849782,71.7971206 664.489782,71.3871206 C654.429782,70.1671206 644.229782,70.1971206 635.759782,76.7171206 C631.549782,79.9471206 628.299782,84.4871206 624.879782,88.7171206 C617.669782,97.5471206 609.209782,104.107121 597.659782,106.477121 C591.482891,107.833712 585.454009,109.793099 579.659782,112.327121 C573.876109,114.622687 569.69959,119.757193 568.629782,125.887121 C567.569782,131.527121 566.969782,137.247121 566.119782,142.887121 C564.809782,151.677121 562.949782,160.277121 557.539782,167.667121 C552.671583,174.363112 546.115679,179.64924 538.539782,182.987121 C536.379782,183.987121 533.879782,184.147121 531.539782,184.757121 C530.539782,185.007121 529.599782,185.387121 528.159782,185.867121 C527.529782,185.337121 526.569782,184.467121 525.549782,183.657121 C513.589321,174.35695 502.129931,164.429706 491.219782,153.917121 C487.255353,150.000159 482.720608,146.706147 477.769782,144.147121 C469.399782,139.907121 460.669782,141.587121 452.289782,144.787121 C440.698378,149.340575 430.139581,156.175738 421.239782,164.887121 C417.499782,168.467121 413.579782,171.887121 408.459782,173.367121 C400.619782,175.717121 393.319782,173.987121 386.759782,169.657121 C380.999782,165.857121 375.699782,161.377121 370.199782,157.197121 C365.739782,153.817121 361.339782,150.327121 355.579782,149.407121 C348.459782,148.267121 342.319782,150.977121 336.489782,154.587121 C332.389782,157.137121 328.539782,160.127121 324.299782,162.397121 C316.679782,166.497121 309.429782,163.797121 306.189782,155.737121 C303.899782,150.017121 302.529782,143.897121 299.839782,138.397121 C297.160375,132.953572 293.858287,127.839363 289.999782,123.157121 C282.249782,113.757121 272.219782,118.387121 267.779782,126.157121 C262.779782,134.897121 263.939782,143.947121 267.679782,152.867121 C271.679782,162.347121 278.939782,166.697121 289.069782,166.717121 C291.979782,166.717121 294.889782,166.927121 297.799782,167.137121 C305.529782,167.677121 311.259782,171.527121 313.799782,178.737121 C316.684352,186.707244 319.003434,194.870815 320.739782,203.167121 C321.919782,208.977121 318.539782,213.807121 313.909782,217.027121 C308.280136,221.170237 302.293226,224.804549 296.019782,227.887121 C286.709782,232.167121 279.369782,229.097121 274.599782,219.997121 C273.289782,217.487121 271.979782,214.997121 270.599782,212.477121 C267.379782,206.477121 262.069782,203.347121 255.599782,202.597121 C250.068028,202.042045 244.508496,201.81165 238.949782,201.907121 C229.847618,202.030117 220.828106,200.166835 212.519782,196.447121 C201.699782,191.567121 193.339782,184.067121 186.519782,174.447121 C182.669782,169.037121 176.989782,165.977121 170.519782,164.447121 C165.766832,163.137791 160.675499,164.101415 156.729782,167.057121 C152.469782,170.237121 148.569782,173.887121 144.489782,177.297121 C142.319782,179.117121 140.189782,180.997121 137.899782,182.647121 C130.399782,188.047121 122.209782,187.647121 113.719782,185.597121 C108.719782,184.387121 103.609782,183.027121 98.5397824,183.047121 C84.3497824,183.047121 71.3397824,187.587121 59.6397824,195.577121 C45.2667656,205.162783 34.9672219,219.746082 30.7397824,236.497121 C28.676329,244.814569 28.960183,253.541346 31.5597824,261.707121 C35.3197824,274.387121 39.3997824,287.007121 44.0597824,299.387121 C47.1197824,307.507121 52.0597824,314.817121 60.4597824,318.387121 C64.8097824,320.247121 69.7097824,320.987121 74.4597824,321.737121 C78.3897824,322.367121 82.4597824,322.227121 86.4597824,322.497121 C96.9897824,323.187121 104.149782,328.927121 109.369782,337.707121 C111.55353,341.445966 113.936979,345.064536 116.509782,348.547121 C121.719782,355.547121 128.919782,357.007121 136.649782,353.137121 C142.649782,350.137121 146.649782,345.007121 150.549782,339.747121 C154.199782,334.747121 157.609782,329.607121 161.679782,325.017121 C164.596506,321.718574 168.015163,318.900628 171.809782,316.667121 C180.419782,311.667121 188.219782,316.287121 188.739782,326.207121 C189.119782,333.567121 186.739782,340.207121 183.279782,346.457121 C176.479782,358.957121 167.429782,369.907121 159.029782,381.307121 C152.239782,390.527121 146.179782,400.197121 142.179782,410.987121 C139.109782,419.227121 137.569782,427.677121 139.699782,436.467121 C140.98611,442.621094 145.126903,447.7943 150.849782,450.397121 C154.445621,452.140709 158.207945,453.517659 162.079782,454.507121 C174.319782,457.507121 182.649782,464.897121 188.079782,476.057121 C191.019782,482.127121 194.439782,487.977121 197.259782,494.057121 C199.568953,499.344331 204.233871,503.234851 209.849782,504.557121 C222.079782,507.737121 234.509782,508.657121 246.959782,505.967121 C257.289782,503.727121 265.469782,497.857121 272.159782,489.827121 C277.419782,483.507121 282.879782,477.267121 290.799782,474.387121 C296.418758,472.324122 302.231521,470.83324 308.149782,469.937121 C327.019782,467.137121 344.929782,461.287121 362.339782,453.727121 C375.019782,448.217121 387.549782,442.367121 400.339782,437.177121 C404.139782,435.637121 408.639782,435.327121 412.809782,435.337121 C419.549782,435.337121 423.469782,439.417121 423.629782,446.217121 C423.607118,449.873408 423.218514,453.518245 422.469782,457.097121 C421.309782,463.577121 419.559782,469.957121 418.619782,476.457121 C417.209782,486.277121 412.069782,493.247121 403.879782,498.507121 C395.979782,503.567121 388.619782,509.427121 383.809782,517.667121 C380.809782,522.827121 378.619782,528.467121 376.009782,533.867121 C370.009782,546.197121 363.539782,558.167121 354.099782,568.307121 C352.193766,570.404385 350.594538,572.761143 349.349782,575.307121 C347.179782,579.617121 348.499782,583.217121 352.939782,585.137121 C355.243894,586.081851 357.685186,586.649122 360.169782,586.817121 C369.909782,587.537121 378.949782,584.817121 387.709782,580.817121 C391.360369,579.000483 395.12105,577.41405 398.969782,576.067121 C408.339782,573.177121 415.259782,578.517121 415.269782,588.347121 C415.269782,592.767121 415.109782,597.187121 415.269782,601.597121 C415.479782,608.597121 419.819782,614.087121 425.799782,614.957121 C429.739782,615.537121 432.969782,613.717121 435.869782,611.397121 C442.129782,606.397121 448.329782,601.397121 454.459782,596.247121 C463.739782,588.457121 474.459782,584.717121 486.459782,583.697121 C498.009782,582.697121 509.679782,581.447121 520.289782,576.527121 C529.289782,572.337121 537.829782,566.997121 546.519782,562.067121 C556.079782,556.647121 565.439782,550.837121 575.169782,545.737121 C581.479782,542.437121 588.269782,540.017121 594.919782,537.377121 C596.727507,536.731989 598.630465,536.393986 600.549782,536.377121 C606.219782,536.167121 609.929782,539.797121 610.319782,545.457121 C610.64955,550.172256 609.244773,554.845364 606.369782,558.597121 C600.429782,566.597121 594.089782,574.367121 588.239782,582.467121 C580.108699,593.870794 570.892348,604.460221 560.719782,614.087121 C559.969842,614.724564 559.181711,615.315662 558.359782,615.857121 L557.689782,615.197121 C558.280524,614.305784 558.949861,613.469113 559.689782,612.697121 C567.953471,605.309928 575.451381,597.108461 582.069782,588.217121 C587.169782,581.317121 592.359782,574.477121 597.519782,567.627121 C600.319782,563.907121 603.219782,560.247121 605.949782,556.467121 C608.183248,553.200181 609.169739,549.24002 608.729782,545.307121 C608.409782,540.627121 605.589782,537.397121 601.019782,538.087121 C595.859171,538.874935 590.819085,540.313039 586.019782,542.367121 C568.819782,549.747121 552.959782,559.677121 537.189782,569.627121 C522.689782,578.777121 506.949782,583.257121 490.139782,584.937121 C481.009782,585.847121 471.689782,586.517121 463.809782,591.807121 C457.259782,596.207121 451.119782,601.247121 444.809782,606.067121 C441.899782,608.297121 439.209782,610.797121 436.279782,612.987121 C431.819782,616.307121 426.919782,618.067121 421.589782,615.267121 C416.259782,612.467121 414.109782,607.547121 413.709782,601.887121 C413.449782,598.077121 414.009782,594.227121 413.859782,590.407121 C413.834354,587.688392 413.389104,584.989907 412.539782,582.407121 C410.899782,578.017121 406.079782,575.887121 400.849782,577.227121 C397.487588,578.179281 394.225654,579.455253 391.109782,581.037121 C383.839782,584.507121 376.359782,587.287121 368.329782,588.207121 C363.189782,588.797121 358.019782,588.937121 353.039782,586.967121 C347.769782,584.897121 345.409782,580.537121 347.729782,575.407121 C349.442306,571.806663 351.698714,568.491193 354.419782,565.577121 C363.659782,555.347121 369.809782,543.267121 375.699782,531.017121 C379.299782,523.527121 381.899782,515.447121 388.109782,509.527121 C391.769782,506.037121 395.719782,502.827121 399.629782,499.607121 C401.489782,498.077121 403.559782,496.787121 405.559782,495.447121 C411.49262,491.545331 415.518711,485.335721 416.659782,478.327121 C418.269782,469.737121 420.109782,461.177121 421.759782,452.597121 C422.076257,450.791955 422.203613,448.958706 422.139782,447.127121 C421.989782,438.987121 417.349782,436.297121 410.089782,436.697121 C402.159782,437.137121 395.169782,440.557121 388.089782,443.697121 C374.769782,449.607121 361.519782,455.697121 347.989782,461.087121 C334.183231,466.54358 319.730742,470.197035 304.989782,471.957121 C292.219782,473.507121 282.269782,479.727121 274.299782,489.747121 C264.219782,502.427121 251.049782,509.277121 234.639782,508.907121 C228.07036,508.743956 221.514348,508.22989 214.999782,507.367121 C205.549782,506.137121 198.429782,501.627121 194.599782,492.367121 C192.319782,486.847121 189.019782,481.747121 186.489782,476.367121 C181.199782,465.007121 172.299782,458.437121 160.289782,455.557121 C156.97435,454.73032 153.74869,453.57806 150.659782,452.117121 C142.879782,448.527121 138.959782,442.047121 137.659782,433.777121 C136.229782,424.547121 138.439782,415.877121 141.939782,407.477121 C147.639782,393.797121 156.519782,382.117121 165.379782,370.417121 C171.909782,361.777121 178.499782,353.147121 183.219782,343.317121 C185.719782,338.087121 187.609782,332.677121 187.219782,326.737121 C187.219782,326.147121 187.219782,325.567121 187.119782,324.987121 C186.259782,317.807121 180.529782,314.477121 173.919782,317.387121 C168.509782,319.757121 164.369782,323.727121 160.859782,328.387121 C156.409782,334.217121 152.389782,340.387121 147.629782,345.937121 C144.670451,349.416638 141.127465,352.353899 137.159782,354.617121 C129.219782,359.007121 120.949782,356.917121 115.419782,349.687121 C112.999782,346.517121 110.939782,343.067121 108.809782,339.687121 C105.399782,334.287121 101.929782,328.837121 95.6297824,326.527121 C92.0276692,325.288682 88.2974653,324.46012 84.5097824,324.057121 C79.2297824,323.397121 73.8497824,323.487121 68.5897824,322.727121 C57.8397824,321.187121 50.3197824,314.807121 45.5197824,305.437121 C36.7567832,288.533521 30.9593272,270.251579 28.3797824,251.387121 C26.8797824,240.167121 30.2297824,229.757121 35.6997824,220.017121 C45.5897824,202.437121 60.0097824,190.327121 79.4397824,184.707121 C85.9854043,182.752212 92.7320601,181.547812 99.5497824,181.117121 C104.029782,180.877121 108.609782,182.937121 113.179782,183.777121 C117.128649,184.657717 121.141302,185.222833 125.179782,185.467121 C132.539782,185.627121 137.959782,181.277121 143.179782,176.697121 C146.179782,173.987121 149.179782,171.197121 152.269782,168.497121 C161.859782,160.037121 172.039782,160.697121 182.079782,168.247121 C186.369782,171.477121 189.529782,176.247121 193.169782,180.307121 C202.722128,191.319666 216.093707,198.302046 230.589782,199.847121 C236.349782,200.517121 242.229782,200.107121 248.049782,200.397121 C251.457463,200.547546 254.849719,200.945259 258.199782,201.587121 C264.909782,202.937121 269.739782,206.877121 272.819782,213.007121 C274.239782,215.827121 275.649782,218.677121 277.299782,221.377121 C281.099782,227.567121 286.469782,229.667121 293.299782,227.377121 C301.461936,224.616808 308.910642,220.081328 315.109782,214.097121 C318.789782,210.647121 320.489782,206.197121 319.109782,201.097121 C317.289782,194.267121 315.539782,187.387121 313.169782,180.737121 C310.249782,172.537121 303.929782,168.657121 295.279782,168.447121 C292.119782,168.367121 288.959782,168.197121 285.799782,168.017121 C277.609782,167.547121 271.689782,163.547121 267.799782,156.397121 C263.359782,148.237121 261.799782,139.687121 264.209782,130.587121 C266.209782,123.187121 272.289782,117.587121 279.269782,116.667121 C283.199782,116.147121 286.499782,117.667121 289.269782,120.227121 C295.649782,126.117121 299.839782,133.487121 302.939782,141.487121 C304.629782,145.827121 305.779782,150.377121 307.469782,154.717121 C309.649782,160.327121 313.749782,163.297121 318.469782,162.717121 C320.536268,162.458531 322.527504,161.777766 324.319782,160.717121 C328.319782,158.347121 332.049782,155.497121 336.049782,153.097121 C349.529782,145.007121 358.569782,145.747121 370.789782,155.697121 C374.859782,159.017121 378.889782,162.397121 383.149782,165.457121 C386.052303,167.550165 389.153946,169.3522 392.409782,170.837121 C401.229782,174.837121 410.409782,172.947121 417.559782,166.127121 C424.279782,159.747121 431.249782,153.587121 439.509782,149.307121 C445.316731,146.2388 451.375479,143.672781 457.619782,141.637121 C468.999782,138.057121 479.189782,141.017121 487.959782,148.897121 C494.399782,154.677121 500.579782,160.757121 507.099782,166.457121 C512.299782,170.997121 518.099782,174.877121 523.099782,179.567121 C528.329782,184.427121 533.619782,183.717121 539.189782,180.967121 C553.399782,173.967121 561.619782,162.517121 563.939782,146.867121 C564.829782,140.867121 565.569782,134.867121 566.409782,128.797121 C567.789782,118.957121 573.179782,112.317121 582.539782,109.037121 C586.649301,107.428028 590.892293,106.183239 595.219782,105.317121 C608.109782,103.247121 617.279782,95.8271206 625.019782,85.9271206 C627.900352,82.0557363 631.170837,78.4903715 634.779782,75.2871206 C640.219782,70.6971206 647.129782,69.6971206 654.019782,69.2871206 C660.909782,68.8771206 667.689782,69.6071206 674.159782,72.8671206 C679.629782,75.6171206 685.709782,77.1271206 691.269782,79.7171206 C696.73802,82.1316283 701.312288,86.1988103 704.349782,91.3471206 C708.869782,99.2371206 707.899782,107.257121 704.219782,115.087121 C698.089782,128.087121 689.059782,138.767121 676.319782,145.547121 C661.469782,153.447121 650.879782,165.117121 642.909782,179.637121 C640.309782,184.367121 637.009782,188.707121 634.029782,193.227121 C633.834802,193.606424 633.570199,193.945658 633.249782,194.227121 C627.629782,197.927121 622.249782,202.147121 616.249782,205.147121 C610.249782,208.147121 603.639782,209.847121 597.349782,212.267121 C591.759782,214.407121 585.989782,216.267121 580.759782,219.087121 C572.309782,223.657121 567.279782,231.537121 562.899782,239.797121 C555.899782,253.007121 552.259782,267.247121 550.199782,281.937121 C549.199782,289.027121 548.199782,296.127121 547.719782,303.257121 C547.109782,312.657121 551.329782,319.567121 560.039782,323.257121 C567.379782,326.407121 574.789782,329.467121 582.339782,332.027121 C592.339782,335.407121 602.649782,335.547121 612.979782,333.827121 C627.979782,331.317121 643.069782,328.917121 658.049782,326.097121 C672.049782,323.457121 685.109782,317.847121 698.109782,312.177121 C710.109782,306.947121 722.859782,305.017121 735.749782,303.777121 C749.949782,302.427121 764.129782,300.947121 777.429782,295.247121 C786.289782,291.447121 794.879782,287.097121 800.979782,279.307121 C809.679782,268.187121 812.409782,255.477121 810.259782,241.617121 C809.539782,237.017121 808.559782,232.417121 808.259782,227.777121 C807.779782,219.847121 809.679782,212.517121 815.469782,206.687121 C823.079782,199.027121 834.009782,201.937121 836.959782,212.317121 C838.499782,217.707121 838.349782,223.197121 837.849782,228.687121 C837.139782,236.477121 836.299782,244.257121 835.709782,252.057121 C835.632398,254.057586 835.882357,256.057257 836.449782,257.977121 C837.968632,264.664505 844.567196,268.900401 851.279782,267.497121 C855.353054,266.737962 859.294289,265.390531 862.979782,263.497121 C870.268843,259.444472 877.01294,254.481327 883.049782,248.727121 C889.699782,242.627121 890.949782,235.547121 888.589782,227.147121 C886.369782,219.227121 884.049782,211.237121 882.859782,203.147121 C880.129782,184.537121 880.779782,166.077121 887.859782,148.277121 C891.279782,139.607121 895.309782,131.357121 902.769782,125.277121 C908.299782,120.787121 914.699782,118.877121 921.669782,118.277121 C932.979782,117.277121 944.089782,119.177121 955.229782,120.577121 C965.459442,122.020889 975.79327,122.592946 986.119782,122.287121 C997.119782,121.797121 1006.89978,117.857121 1015.96978,111.907121 C1021.96978,107.977121 1027.83978,103.907121 1033.83978,99.9671206 C1041.89978,94.7071206 1050.83978,93.5471206 1059.99978,95.6371206 C1073.87238,98.6433057 1087.15404,103.917449 1099.30978,111.247121 C1101.55978,112.627121 1103.54978,114.427121 1105.66978,116.037121 L1105.09978,116.977121 L1101.85978,115.477121 C1104.85978,122.477121 1102.46978,128.627121 1099.69978,134.777121 C1096.84978,141.097121 1094.07978,147.437121 1094.14978,154.577121 C1094.21978,161.717121 1097.25978,165.577121 1104.14978,166.757121 C1108.72978,167.557121 1113.41978,167.757121 1118.03978,168.337121 C1125.26978,169.337121 1132.22978,171.097121 1137.03978,177.117121 C1139.08539,179.530631 1140.70826,182.272599 1141.83978,185.227121 C1144.69978,193.567121 1147.27978,202.027121 1149.63978,210.527121 C1152.71978,221.657121 1151.63978,232.787121 1149.13978,243.897121 C1147.31978,251.897121 1146.13978,259.957121 1146.66978,268.187121 C1147.10978,274.837121 1148.89978,280.957121 1154.06978,285.667121 C1157.63978,288.927121 1162.01978,290.087121 1166.56978,290.897121 L1166.62978,292.347121 Z" id="Path"></path>
            <path d="M1166.62978,62.8171206 C1165.54729,62.3004468 1164.51317,61.6880078 1163.53978,60.9871206 C1157.34978,55.6771206 1151.47978,49.9871206 1144.99978,45.0471206 C1132.69978,35.6871206 1119.33978,34.7871206 1105.12978,40.7671206 C1095.98228,44.7825248 1086.59024,48.2160294 1077.00978,51.0471206 C1070.12978,52.9671206 1062.73978,53.4871206 1055.53978,53.8071206 C1043.14978,54.3471206 1030.71978,53.9571206 1018.32978,54.4871206 C1003.69978,55.1171206 989.079782,56.1471206 974.479782,57.3171206 C962.369782,58.3171206 950.269782,59.4571206 938.229782,61.0471206 C933.292656,61.8332659 928.470196,63.2202269 923.869782,65.1771206 C919.999782,66.7171206 916.569782,69.3571206 912.799782,71.1771206 C905.679782,74.6771206 898.369782,77.9671206 890.359782,78.5271206 C882.349782,79.0871206 874.359782,79.1971206 866.429782,78.9671206 C851.789782,78.5571206 837.429782,78.8671206 824.429782,87.1371206 C816.962389,92.0434111 810.393495,98.1962522 805.009782,105.327121 C793.743116,119.767121 782.536449,134.263787 771.389782,148.817121 C769.260858,151.597035 767.342205,154.531839 765.649782,157.597121 C760.059782,167.727121 751.209782,173.317121 740.279782,175.837121 C736.506166,176.795083 732.601848,177.132826 728.719782,176.837121 C721.459782,176.057121 718.809782,170.117121 719.269782,163.567121 C719.829782,155.747121 723.729782,149.187121 727.489782,142.567121 C729.879782,138.377121 732.229782,134.147121 734.389782,129.837121 C739.309782,120.017121 738.389782,109.837121 736.219782,99.5271206 C734.539782,91.6571206 732.219782,83.9871206 728.109782,77.0371206 C721.909782,66.4871206 721.109782,55.2471206 722.669782,43.4371206 C723.274835,39.0612702 723.274835,34.622971 722.669782,30.2471206 C720.839782,17.9271206 713.859782,11.0871206 701.579782,8.30712062 C694.779782,6.76712062 688.059782,4.84712062 681.349782,2.95712062 C678.859782,2.25712062 676.859782,0.357120619 673.819782,1.08712062 C669.965937,1.90525405 666.428686,3.81446712 663.629782,6.58712062 C660.489782,9.78712062 657.569782,13.2171206 654.389782,16.3771206 C649.669782,21.0571206 643.609782,22.8371206 637.249782,22.7471206 C630.109782,22.6371206 622.989782,21.6371206 615.859782,21.1671206 C610.069782,20.7871206 604.259782,20.2871206 598.469782,20.4171206 C591.049782,20.5871206 585.949782,24.6571206 583.219782,31.4171206 C581.499197,35.7521771 580.03009,40.1828687 578.819782,44.6871206 C576.359782,53.7571206 570.639782,59.6871206 562.109782,63.2771206 C557.109782,65.4071206 552.109782,67.8271206 547.189782,70.2771206 C539.009782,74.2771206 533.069782,80.5971206 528.639782,88.5671206 C525.459782,94.3071206 521.399782,99.5671206 515.039782,102.027121 C511.919782,103.257121 508.439782,103.557121 505.119782,104.257121 C504.962124,104.318013 504.78744,104.318013 504.629782,104.257121 C500.229782,101.377121 495.069782,102.747121 490.339782,101.717121 C484.339782,100.407121 478.219782,99.4571206 472.199782,98.1271206 C463.412244,96.0407821 454.236378,96.2439251 445.549782,98.7171206 C440.659782,100.147121 435.619782,101.077121 430.549782,99.8771206 C428.09729,99.3937842 425.689055,98.708106 423.349782,97.8271206 C411.699782,92.9271206 399.969782,93.2871206 388.189782,97.1571206 C383.789611,98.4499997 379.510166,100.122965 375.399782,102.157121 C366.459782,106.967121 356.969782,107.437121 347.209782,106.777121 C342.309782,106.457121 337.409782,106.237121 332.499782,106.037121 C324.815456,105.598194 317.297203,103.622569 310.389782,100.227121 C298.866321,94.7897696 286.02861,92.7600235 273.389782,94.3771206 C260.989782,95.8571206 248.619782,97.5371206 236.259782,99.2871206 C229.649713,100.338096 223.339545,102.7858 217.749782,106.467121 C215.558602,107.831854 213.298976,109.083493 210.979782,110.217121 C202.249782,114.547121 193.779782,113.927121 185.569782,108.757121 C181.069782,105.927121 176.839782,102.297121 171.949782,100.547121 C155.819782,94.7771206 139.309782,92.6971206 122.949782,99.5471206 C118.419782,101.427121 114.509782,104.787121 110.179782,107.217121 C102.259782,111.677121 97.7897824,119.277121 92.6097824,126.217121 C84.3197824,137.307121 73.8197824,145.937121 62.7097824,153.997121 C55.9797824,158.877121 49.1897824,163.787121 43.1197824,169.437121 C31.4797824,180.267121 23.1197824,193.637121 15.1897824,207.307121 C7.40311189,220.878644 2.9189517,236.091902 2.09978241,251.717121 C0.949782411,269.847121 1.46978241,287.847121 6.18978241,305.537121 C9.66891004,318.281912 15.9328018,330.095871 24.5297824,340.127121 C29.9197824,346.567121 35.7197824,352.847121 37.9697824,361.257121 C38.9225607,364.699894 39.4860851,368.238693 39.6497824,371.807121 C39.8997824,378.217121 39.6497824,384.637121 39.6497824,391.057121 C39.5697824,402.177121 44.1597824,411.197121 52.1397824,418.657121 C54.4597824,420.827121 57.0397824,422.737121 59.2997824,424.977121 C61.5597824,427.217121 64.4697824,427.827121 67.5197824,427.977121 C71.5197824,428.117121 75.5197824,427.977121 79.5197824,428.477121 C86.1597824,429.337121 90.7697824,433.137121 92.5897824,439.597121 C93.4458705,443.235332 94.0010778,446.937829 94.2497824,450.667121 C94.9997824,457.667121 95.2497824,464.787121 96.3597824,471.747121 C99.2297824,489.377121 110.019782,500.467121 126.229782,506.927121 C134.109782,510.067121 141.879782,513.517121 149.719782,516.777121 C157.559782,520.037121 163.829782,525.577121 168.999782,532.247121 C175.689782,540.867121 183.609782,547.637121 194.299782,550.897121 C199.943046,552.73676 205.169036,555.66916 209.679782,559.527121 C215.949782,564.667121 218.359782,571.157121 217.029782,579.037121 C216.451565,582.575762 215.670274,586.078214 214.689782,589.527121 C212.239782,597.997121 214.469782,604.987121 220.559782,611.207121 C224.131219,614.816886 227.392715,618.720646 230.309782,622.877121 C235.309782,630.047121 237.059782,638.327121 237.729782,646.937121 C238.449782,656.057121 239.509782,665.147121 240.409782,674.247121 C240.489782,674.997121 240.489782,675.747121 240.529782,676.497121 L239.759782,676.677121 C239.455997,676.095109 239.227495,675.476811 239.079782,674.837121 C238.079782,666.417121 236.559782,658.007121 236.279782,649.557121 C235.839782,636.287121 231.889782,624.747121 222.279782,615.347121 C220.619782,613.717121 219.149782,611.887121 217.609782,610.137121 C212.621812,604.865092 210.829638,597.330331 212.909782,590.377121 C213.739782,587.237121 214.349782,584.037121 215.119782,580.887121 C217.459782,571.317121 214.119782,563.887121 206.119782,558.777121 C201.49148,555.83036 196.559815,553.389672 191.409782,551.497121 C183.234515,548.499826 176.041868,543.310326 170.619782,536.497121 C165.369782,530.137121 160.199782,523.557121 152.559782,519.897121 C146.859782,517.157121 140.829782,515.137121 135.059782,512.547121 C128.749782,509.717121 122.489782,506.767121 116.369782,503.547121 C104.369782,497.247121 97.7897824,486.737121 95.2997824,473.807121 C93.7997824,466.007121 93.5197824,457.967121 92.6897824,450.037121 C92.4197824,447.467121 92.3597824,444.867121 91.8397824,442.347121 C90.1797824,434.347121 84.4397824,429.767121 76.2397824,429.577121 C72.0797824,429.487121 67.8997824,429.497121 63.7897824,429.007121 C61.7138231,428.771114 59.7597317,427.905731 58.1897824,426.527121 C53.3621282,421.947136 48.8170943,417.078172 44.5797824,411.947121 C39.8797824,406.027121 38.1597824,398.857121 38.1197824,391.327121 C38.1197824,386.327121 37.8997824,381.327121 38.2497824,376.327121 C39.0697824,364.427121 34.6197824,354.637121 27.2497824,345.657121 C22.231212,339.65489 17.6145002,333.32779 13.4297824,326.717121 C6.75978241,316.027121 3.42978241,304.017121 1.81978241,291.617121 C-0.720217589,272.427121 -0.870217589,253.257121 3.09978241,234.187121 C5.54978241,222.437121 10.8097824,211.897121 16.8297824,201.647121 C24.2897824,188.937121 32.6097824,176.857121 43.6197824,166.967121 C49.5725218,161.760369 55.8266781,156.908639 62.3497824,152.437121 C74.9097824,143.567121 86.1097824,133.437121 94.9197824,120.697121 C101.727071,110.87342 110.601221,102.658005 120.919782,96.6271206 C122.109782,95.9271206 123.509782,94.6271206 124.079782,97.3571206 C131.72915,94.5572456 139.884662,93.408726 148.009782,93.9871206 C157.839782,94.7271206 167.599782,96.2871206 176.469782,100.897121 C180.289782,102.897121 183.629782,105.757121 187.319782,108.007121 C194.649782,112.487121 202.319782,112.797121 209.959782,109.007121 C213.399782,107.317121 216.719782,105.407121 220.029782,103.467121 C227.479782,99.1171206 235.749782,97.6371206 244.099782,96.4671206 C252.019782,95.3271206 259.919782,94.0771206 267.859782,93.2171206 C282.089782,91.6871206 296.119782,91.8971206 309.449782,98.2971206 C319.740776,103.183104 331.067876,105.486281 342.449782,105.007121 C345.528957,104.965501 348.607848,105.109093 351.669782,105.437121 C360.609782,106.257121 368.729782,103.797121 376.669782,100.007121 C386.469782,95.3671206 396.799782,92.1571206 407.789782,93.0071206 C412.996429,93.5001285 418.125863,94.611282 423.069782,96.3171206 C429.799782,98.5271206 436.489782,100.047121 443.379782,97.7971206 C455.629782,93.7971206 467.619782,95.5071206 479.829782,98.2071206 C487.669782,99.9471206 495.829782,100.377121 503.829782,101.397121 C505.549782,101.617121 507.249782,101.937121 508.969782,102.117121 C509.788294,102.199223 510.614555,102.155381 511.419782,101.987121 C517.129782,100.697121 521.099782,96.9871206 524.419782,92.4671206 C526.233967,89.9785364 527.903395,87.3875841 529.419782,84.7071206 C533.669782,77.3671206 539.969782,72.3171206 547.419782,68.5871206 C552.629782,65.9771206 557.949782,63.5871206 563.249782,61.1571206 C570.121259,58.2502955 575.280824,52.3536492 577.249782,45.1571206 C578.776611,39.7947608 580.623251,34.528665 582.779782,29.3871206 C585.629782,22.6671206 591.299782,19.7171206 598.329782,18.8971206 C606.469782,17.8971206 614.389782,19.7871206 622.409782,20.5771206 C628.035115,21.1799808 633.693889,21.4138144 639.349782,21.2771206 C647.639782,21.0171206 653.569782,16.2771206 658.589782,10.0971206 C661.589782,6.39712062 664.779782,2.67712062 669.449782,1.16712062 C672.36779,0.299308646 675.407319,-0.0890755936 678.449782,0.0171206186 C679.989782,0.0171206186 681.449782,1.71712062 683.039782,2.22712062 C687.319782,3.56712062 691.659782,4.72712062 696.039782,5.87712062 C700.419782,7.02712062 705.129782,7.61712062 709.289782,9.38712062 C719.609782,13.7771206 723.989782,22.5171206 724.719782,33.1871206 C724.979785,37.8624778 724.775452,42.5520963 724.109782,47.1871206 C722.653487,57.246151 724.551283,67.5047944 729.509782,76.3771206 C735.679782,87.5871206 738.759782,99.7271206 739.709782,112.377121 C740.329782,120.547121 737.709782,127.997121 733.889782,135.067121 C730.689782,141.007121 727.199782,146.797121 724.199782,152.837121 C721.859782,157.537121 720.029782,162.537121 721.289782,167.987121 C722.509782,173.257121 725.599782,176.117121 731.029782,175.827121 C743.569782,175.137121 755.029782,171.427121 762.239782,160.317121 C775.469782,139.927121 791.239782,121.527121 805.979782,102.317121 C812.790265,93.0259361 822.00355,85.7659371 832.629782,81.3171206 C839.839782,78.3871206 847.469782,77.4871206 855.149782,77.3671206 C863.049782,77.2471206 870.969782,77.5571206 878.869782,77.7471206 C891.532155,78.2058776 904.035887,74.8132033 914.729782,68.0171206 C924.099782,62.0971206 934.569782,59.3771206 945.449782,58.3371206 C961.679782,56.7671206 977.929782,55.1571206 994.209782,54.3371206 C1012.57978,53.3371206 1030.98978,53.3371206 1049.37978,52.7271206 C1059.61978,52.4071206 1069.94978,52.2071206 1079.76978,48.9271206 C1087.76978,46.2371206 1095.60978,42.7971206 1103.58978,39.9271206 C1107.85085,38.2500712 1112.23786,36.9125698 1116.70978,35.9271206 C1128.06978,33.7271206 1137.96978,37.7671206 1146.81978,44.3971206 C1152.52978,48.6671206 1157.66978,53.7071206 1163.04978,58.3971206 C1164.29978,59.4871206 1165.46978,60.6671206 1166.67978,61.8071206 L1166.62978,62.8171206 Z" id="Path"></path>
            <path d="M1166.62978,456.887121 C1161.39978,459.527121 1155.98978,461.307121 1150.02978,459.997121 C1144.06978,458.687121 1140.25978,454.887121 1138.02978,449.367121 C1135.46978,443.067121 1135.71978,436.447121 1136.30978,429.887121 C1137.23978,419.527121 1138.80978,409.207121 1139.30978,398.887121 C1139.62978,392.707121 1138.79978,386.407121 1137.97978,380.237121 C1135.78978,363.727121 1133.49978,347.237121 1130.89978,330.777121 C1129.58978,322.437121 1127.11978,314.377121 1122.42978,307.177121 C1117.62978,299.797121 1110.74978,297.007121 1102.42978,298.867121 C1096.77978,300.127121 1091.42978,302.557121 1085.84978,304.327121 C1082.08121,305.641609 1078.22938,306.703954 1074.31978,307.507121 C1066.31978,308.947121 1059.22978,305.317121 1055.23978,298.207121 C1050.49978,289.767121 1048.58978,280.477121 1047.04978,271.077121 C1045.66978,262.587121 1045.12978,254.077121 1046.49978,245.477121 C1046.69978,244.247121 1046.81978,243.007121 1048.61978,244.077121 C1050.85978,237.307121 1054.94978,231.897121 1059.78978,226.967121 C1062.22978,224.467121 1064.68978,221.967121 1066.89978,219.267121 C1072.67978,212.267121 1072.82978,204.267121 1067.38978,197.007121 C1062.27978,190.137121 1055.02978,186.197121 1047.38978,183.007121 C1036.74978,178.507121 1025.38978,177.007121 1014.07978,175.557121 C1002.08704,174.086921 990.249858,171.546797 978.709782,167.967121 C969.179782,164.967121 959.569782,162.197121 949.869782,159.867121 C943.421964,158.372197 936.717601,158.372197 930.269782,159.867121 C916.929782,162.867121 908.829782,171.317121 905.979782,184.497121 C902.699782,199.687121 907.479782,212.337121 918.979782,222.697121 C928.229782,231.037121 939.169782,236.787121 949.679782,243.197121 C957.189782,247.777121 964.389782,252.777121 969.939782,259.687121 C980.019782,272.227121 980.849782,285.187121 971.609782,298.687121 C957.339782,319.507121 937.679782,329.687121 912.009782,327.247121 C901.929782,326.247121 891.699782,324.977121 881.779782,328.247121 C875.539782,330.247121 869.479782,332.897121 863.439782,335.487121 C854.439782,339.377121 844.889782,340.827121 835.169782,340.987121 C828.849782,341.097121 822.499782,340.377121 816.169782,340.717121 C808.793968,341.086237 801.447226,341.901057 794.169782,343.157121 C784.019782,344.967121 775.059782,349.957121 766.309782,355.157121 C752.499782,363.397121 738.019782,369.697121 721.829782,371.337121 C717.109782,371.817121 712.379782,372.337121 707.649782,372.477121 C694.489782,372.797121 681.329782,372.917121 668.179782,373.107121 C657.269782,373.257121 646.359782,373.627121 635.449782,373.457121 C625.969782,373.307121 616.509782,372.397121 607.029782,372.057121 C599.583235,371.848515 592.186749,373.336019 585.399782,376.407121 C584.695344,376.644464 583.973037,376.825041 583.239782,376.947121 L582.929782,376.227121 L586.289782,374.057121 C569.229782,378.687121 553.429782,384.617121 540.889782,396.687121 C532.629782,404.637121 525.349782,413.607121 517.109782,421.587121 C509.829782,428.587121 501.949782,435.077121 494.109782,441.527121 C487.939782,446.607121 481.279782,451.107121 476.389782,457.527121 C469.539782,466.527121 468.689782,477.677121 474.389782,486.767121 C478.819782,493.867121 485.699782,496.767121 493.759782,497.387121 C502.079782,497.987121 510.219782,496.607121 518.269782,494.757121 C540.519782,489.637121 562.739782,484.397121 584.979782,479.267121 C599.679782,475.877121 613.049782,469.417121 625.979782,461.917121 C638.909782,454.417121 652.629782,449.737121 667.809782,450.417121 C681.639782,451.037121 692.589782,456.827121 699.599782,468.907121 C704.119782,476.667121 707.949782,484.837121 712.099782,492.807121 C715.899782,500.087121 720.159782,507.047121 726.589782,512.357121 C736.489782,520.527121 748.019782,522.817121 760.209782,520.037121 C769.419782,517.937121 778.409782,514.697121 787.329782,511.517121 C799.419782,507.217121 811.329782,502.307121 823.999782,499.997121 C834.679782,498.057121 845.059782,498.337121 854.839782,503.757121 C860.489782,506.887121 864.939782,511.337121 868.919782,516.297121 C875.019782,523.887121 880.549782,532.007121 887.229782,539.037121 C898.299782,550.687121 912.469782,554.527121 928.229782,553.147121 C933.931163,552.574385 939.660092,552.320656 945.389782,552.387121 C957.949782,552.707121 961.569782,562.197121 960.479782,571.947121 C959.349782,582.007121 954.929782,590.737121 949.059782,598.777121 C935.70989,617.214632 918.149377,632.196952 897.839782,642.477121 C891.079782,645.917121 884.619782,649.897121 879.699782,655.917121 C874.779782,661.937121 873.429782,668.657121 873.699782,676.047121 C873.699782,676.867121 873.699782,677.707121 873.699782,678.537121 L872.699782,678.647121 C872.405556,677.36256 872.198418,676.059595 872.079782,674.747121 C871.799782,662.747121 877.159782,653.747121 886.959782,647.287121 C893.359782,643.097121 900.149782,639.497121 906.759782,635.617121 C914.599911,631.023226 921.896146,625.558597 928.509782,619.327121 C936.599782,611.717121 944.149782,603.657121 950.179782,594.327121 C954.462132,587.939149 957.389083,580.740893 958.779782,573.177121 C960.849782,560.817121 954.859782,553.527121 942.339782,553.677121 C937.279782,553.747121 932.219782,554.407121 927.159782,554.797121 C912.159782,555.937121 898.469782,552.427121 887.659782,541.677121 C881.319782,535.377121 876.239782,527.837121 870.439782,520.977121 C866.899782,516.787121 863.439782,512.467121 859.299782,508.877121 C850.579782,501.227121 839.979782,499.557121 828.819782,500.877121 C814.099782,502.617121 800.509782,508.287121 786.819782,513.447121 C776.919782,517.167121 767.109782,521.197121 756.449782,522.327121 C741.359782,523.927121 728.929782,519.047121 719.329782,507.197121 C713.019782,499.417121 709.119782,490.257121 704.549782,481.467121 C701.548622,475.350804 698.007928,469.514348 693.969782,464.027121 C687.669782,455.917121 678.589782,452.657121 668.519782,452.027121 C655.419782,451.267121 643.309782,454.657121 631.739782,460.607121 C620.739782,466.277121 610.259782,473.217121 598.289782,476.827121 C588.089782,479.887121 577.729782,482.437121 567.359782,484.897121 C549.279782,489.183787 531.169782,493.320454 513.029782,497.307121 C504.789782,499.107121 496.449782,499.917121 488.029782,498.047121 C471.279782,494.347121 465.299782,476.197121 471.409782,462.767121 C474.849782,455.217121 480.919782,450.027121 487.109782,444.927121 C495.469782,438.057121 504.109782,431.467121 512.169782,424.307121 C516.879782,420.137121 520.909782,415.167121 525.069782,410.407121 C535.279782,398.707121 546.349782,388.087121 560.639782,381.407121 C571.467037,376.391276 582.859104,372.698003 594.569782,370.407121 C597.719782,369.777121 601.109782,370.217121 604.389782,370.407121 C613.949782,370.797121 623.499782,371.407121 633.059782,371.697121 C641.799782,371.947121 650.559782,371.987121 659.299782,371.867121 C675.869782,371.627121 692.439782,371.307121 708.999782,370.817121 C728.439782,370.247121 746.639782,365.327121 763.299782,355.007121 C771.239782,350.097121 779.479782,345.697121 788.449782,342.877121 C795.454292,340.677781 802.739115,339.499007 810.079782,339.377121 C816.399782,339.267121 822.729782,339.137121 829.079782,339.377121 C843.717834,340.044481 858.280478,336.923914 871.359782,330.317121 C882.359782,324.817121 893.999782,324.057121 905.989782,325.167121 C916.789782,326.167121 927.629782,326.897121 938.139782,323.167121 C952.145013,318.319607 963.981227,308.669249 971.549782,295.927121 C979.279782,283.187121 977.429782,269.687121 967.019782,258.557121 C960.429782,251.557121 952.329782,246.557121 944.159782,241.717121 C935.289782,236.417121 926.389782,231.197121 918.519782,224.397121 C902.289782,210.397121 899.079782,189.947121 909.069782,172.757121 C914.209782,163.897121 922.459782,159.327121 932.489782,157.877121 C943.489782,156.297121 954.039782,158.467121 964.489782,161.577121 C975.579782,164.877121 986.569782,168.637121 997.819782,171.257121 C1007.35978,173.487121 1017.22978,174.257121 1026.91978,175.867121 C1038.67978,177.867121 1050.10978,180.867121 1059.91978,188.017121 C1063.28181,190.454669 1066.28743,193.34922 1068.84978,196.617121 C1074.59978,204.007121 1074.26978,212.877121 1068.25978,220.057121 C1064.89978,224.057121 1061.25978,227.837121 1057.65978,231.677121 C1053.40978,236.247121 1051.21978,241.787121 1049.19978,247.627121 C1044.74978,260.537121 1049.08978,272.707121 1051.68978,285.017121 C1052.71143,290.465723 1054.98826,295.601431 1058.33978,300.017121 C1062.33978,305.017121 1067.63978,307.417121 1073.75978,306.017121 C1080.37978,304.537121 1086.75978,301.917121 1093.25978,299.917121 C1096.8594,298.627182 1100.56764,297.663307 1104.33978,297.037121 C1113.65978,295.937121 1120.98978,300.397121 1125.69978,309.477121 C1130.21978,318.187121 1132.31978,327.627121 1133.69978,337.217121 C1136.13978,354.277121 1138.64978,371.347121 1140.47978,388.487121 C1141.61978,399.177121 1140.72978,409.947121 1139.04978,420.607121 C1137.82978,428.357121 1136.75978,436.197121 1138.13978,443.977121 C1140.42978,456.977121 1150.86978,462.317121 1162.99978,456.977121 C1164.21978,456.447121 1165.44978,455.977121 1166.66978,455.447121 L1166.62978,456.887121 Z" id="Path"></path>
            <path d="M1166.62978,486.887121 C1149.24978,495.347121 1130.62978,500.267121 1112.40978,506.517121 C1108.50978,507.867121 1104.40978,508.517121 1100.40978,509.657121 C1098.89947,510.129223 1097.42556,510.710763 1095.99978,511.397121 C1085.50978,515.907121 1074.88978,520.307121 1066.05978,527.727121 C1056.23978,535.987121 1050.22978,546.337121 1051.19978,559.727121 C1051.78978,567.727121 1056.28978,573.617121 1062.19978,578.577121 C1063.69161,579.771052 1065.08602,581.081859 1066.36978,582.497121 C1069.26978,585.837121 1068.81978,590.287121 1064.90978,592.257121 C1061.39766,593.902437 1057.70624,595.134031 1053.90978,595.927121 C1048.62978,597.157121 1043.21978,597.927121 1038.67978,601.177121 C1032.84978,605.357121 1030.76978,610.607121 1032.67978,617.547121 C1034.37978,623.807121 1036.67978,629.907121 1038.49978,636.137121 C1040.39978,642.597121 1042.49978,649.027121 1042.27978,655.927121 C1042.02978,664.297121 1038.27978,671.097121 1032.93978,677.177121 C1032.71978,677.437121 1032.26978,677.487121 1031.16978,677.947121 C1031.4739,677.104475 1031.87315,676.29927 1032.35978,675.547121 C1041.35978,665.717121 1042.45978,654.417121 1038.63978,642.187121 C1036.21978,634.397121 1033.57978,626.667121 1031.41978,618.807121 C1028.65978,608.807121 1033.01978,600.597121 1042.88978,597.297121 C1047.76978,595.677121 1052.88978,594.867121 1057.88978,593.537121 C1059.90369,593.034089 1061.84581,592.278076 1063.66978,591.287121 C1067.13978,589.287121 1067.66978,586.167121 1064.99978,583.177121 C1063.24078,581.290237 1061.34207,579.538609 1059.31978,577.937121 C1048.58978,568.937121 1047.31978,554.827121 1052.38978,543.337121 C1057.45978,531.847121 1066.00978,524.337121 1076.75978,518.897121 C1084.84978,514.807121 1093.17978,511.207121 1101.45978,507.497121 C1103.38657,506.678009 1105.39915,506.077589 1107.45978,505.707121 C1121.66978,502.937121 1135.01978,497.397121 1148.63978,492.777121 C1154.83978,490.677121 1160.69978,487.557121 1166.70978,484.897121 L1166.62978,486.887121 Z" id="Path"></path>
            <path d="M227.469782,480.487121 C227.942784,480.220251 228.451151,480.021617 228.979782,479.897121 C239.109782,479.167121 245.979782,473.017121 252.459782,466.067121 C257.283366,460.688135 262.44732,455.624387 267.919782,450.907121 C274.069782,445.827121 281.919782,444.567121 289.599782,444.447121 C305.599782,444.187121 319.209782,438.137121 331.209782,427.927121 C338.063116,422.100454 344.889782,416.250454 351.689782,410.377121 C358.077649,404.968528 365.563275,401.010767 373.629782,398.777121 C384.785585,395.560818 395.260595,390.335174 404.539782,383.357121 C415.355812,375.059106 427.898006,369.297215 441.239782,366.497121 C452.263891,364.29976 462.571318,359.403732 471.239782,352.247121 C479.98948,345.230748 486.687483,335.986882 490.629782,325.487121 C491.489782,323.187121 490.989782,320.387121 491.809782,318.067121 C493.929782,312.067121 495.949782,306.067121 498.869782,300.477121 C509.019782,281.107121 513.199782,260.477121 513.089782,238.777121 C513.051361,215.711309 496.779644,195.860817 474.169782,191.297121 C462.509782,188.857121 451.169782,189.347121 440.659782,195.167121 C426.499782,202.997121 418.339782,215.097121 417.809782,231.437121 C417.569782,239.047121 418.539782,246.727121 419.419782,254.317121 C421.359782,271.027121 417.479782,286.207121 408.269782,300.137121 C407.988757,300.552965 407.681466,300.95044 407.349782,301.327121 C401.349782,308.257121 394.999782,308.117121 389.519782,300.737121 C385.949782,295.917121 382.849782,290.737121 379.259782,285.957121 C367.189782,269.837121 352.259782,257.417121 332.669782,251.507121 C320.669782,247.907121 309.299782,250.197121 298.129782,255.077121 C289.589782,258.807121 281.129782,262.707121 271.719782,264.027121 C260.399782,265.627121 250.369782,262.777121 241.789782,255.267121 C237.589782,251.597121 233.599782,247.677121 229.709782,243.677121 C222.169782,235.937121 213.099782,230.357121 203.839782,225.037121 C199.949782,222.807121 195.979782,220.677121 191.899782,218.807121 C181.899782,214.237121 174.979782,215.567121 167.059782,223.127121 C163.389782,226.627121 159.859782,230.377121 155.759782,233.307121 C145.709782,240.487121 135.099782,240.307121 124.889782,233.777121 C119.921467,230.420338 115.271941,226.614354 110.999782,222.407121 C99.4397824,211.487121 84.4897824,211.847121 72.2897824,218.217121 C67.3797824,220.777121 63.1597824,224.107121 61.0397824,229.417121 C59.1997824,234.017121 60.0397824,238.617121 61.6597824,243.087121 C65.6597824,253.697121 69.6597824,264.267121 73.6597824,274.867121 C75.3726925,280.007885 79.2768905,284.124506 84.3197824,286.107121 C84.8692554,286.397521 85.3943053,286.731947 85.8897824,287.107121 L85.6997824,287.767121 C84.8095258,287.687812 83.928868,287.523735 83.0697824,287.277121 C79.0618391,285.71234 75.7838567,282.705443 73.8797824,278.847121 C72.6819139,276.285033 71.6204305,273.661366 70.6997824,270.987121 C67.5797824,262.827121 64.4597824,254.667121 61.4097824,246.477121 C60.4139853,243.92223 59.5921101,241.302921 58.9497824,238.637121 C57.3632554,232.552467 59.4503553,226.100012 64.2997824,222.097121 C75.1897824,212.727121 87.7497824,209.267121 101.449782,214.617121 C106.449782,216.547121 110.649782,220.497121 114.869782,223.957121 C119.619782,227.877121 123.929782,232.397121 129.739782,234.777121 C139.959782,238.957121 149.329782,237.347121 157.639782,230.077121 C160.579782,227.497121 163.379782,224.747121 166.179782,222.077121 C174.349782,214.157121 182.409782,212.507121 192.639782,217.487121 C208.119782,225.027121 222.819782,233.727121 234.759782,246.557121 C239.009994,251.12881 243.833284,255.131973 249.109782,258.467121 C258.649782,264.467121 269.109782,264.127121 279.509782,260.777121 C286.004886,258.662464 292.375076,256.181829 298.589782,253.347121 C315.889782,245.527121 332.459782,247.277121 348.589782,256.547121 C362.984093,264.760189 375.1723,276.341044 384.109782,290.297121 C386.353196,293.806556 388.776426,297.197743 391.369782,300.457121 C396.239782,306.527121 401.699782,306.457121 406.369782,300.147121 C412.289782,292.147121 415.649782,283.097121 417.539782,273.397121 C419.339782,264.137121 417.929782,254.987121 416.809782,245.817121 C415.649782,236.387121 415.239782,226.937121 418.879782,217.957121 C425.789782,200.907121 438.369782,190.907121 456.819782,188.867121 C470.394502,187.216054 484.077826,190.925692 494.959782,199.207121 C505.959782,207.407121 512.229782,218.707121 514.139782,232.207121 C515.939782,244.917121 513.909782,257.447121 511.539782,269.917121 C509.539782,280.247121 505.739782,289.917121 501.229782,299.307121 C498.789782,304.407121 496.619782,309.647121 494.459782,314.877121 C494.089782,315.767121 494.459782,316.937121 494.309782,317.967121 C494.27916,319.196595 494.104638,320.418251 493.789782,321.607121 C485.789782,345.207121 469.549782,360.157121 445.789782,366.977121 C436.669782,369.597121 427.209782,371.197121 418.899782,376.097121 C414.239782,378.847121 409.669782,381.767121 405.269782,384.917121 C396.064899,391.710112 385.752272,396.856276 374.789782,400.127121 C365.1651,402.95857 356.318216,407.960173 348.929782,414.747121 C341.929782,420.957121 334.779782,426.907121 327.509782,432.747121 C316.966005,441.255556 303.8383,445.918325 290.289782,445.967121 C276.819782,446.207121 266.139782,451.827121 257.719782,462.277121 C253.169782,467.907121 248.559782,473.687121 242.069782,477.177121 C238.399782,479.177121 234.179782,480.097121 230.169782,481.387121 C229.311318,481.504113 228.43935,481.477075 227.589782,481.307121 L227.469782,480.487121 Z" id="Path"></path>
            <path d="M820.449782,361.297121 C835.859782,362.857121 850.169782,358.707121 864.219782,353.007121 C871.499782,350.007121 878.999782,347.427121 886.919782,347.577121 C892.647923,347.835625 898.339354,348.629078 903.919782,349.947121 C923.919782,354.207121 943.059782,351.397121 961.439782,343.057121 C971.519782,338.477121 978.489782,330.147121 984.729782,321.287121 C990.729782,312.777121 996.369782,304.007121 1002.50978,295.607121 C1004.71978,292.607121 1007.77978,290.077121 1010.71978,287.667121 C1012.59978,286.117121 1015.01978,285.307121 1017.49978,286.667121 C1019.83504,287.849027 1021.10107,290.438264 1020.59978,293.007121 C1020.05427,297.019492 1019.04761,300.955521 1017.59978,304.737121 C1014.89978,311.177121 1011.39978,317.287121 1008.59978,323.667121 C1006.19978,329.067121 1004.07978,334.667121 1005.09978,340.787121 C1005.68962,345.392547 1008.8833,349.244441 1013.29978,350.677121 C1017.35512,352.169646 1021.62137,353.010069 1025.93978,353.167121 C1037.49978,353.237121 1049.06978,352.407121 1060.62978,352.467121 C1068.94978,352.467121 1077.30978,353.127121 1085.04978,356.797121 C1093.98978,361.037121 1098.72978,368.287121 1099.64978,377.947121 C1100.07978,382.477121 1099.64978,387.077121 1099.75978,391.647121 C1099.99978,400.877121 1100.61978,410.117121 1100.55978,419.347121 C1100.50221,424.254639 1099.88489,429.139566 1098.71978,433.907121 C1096.06978,445.077121 1088.71978,451.777121 1077.52978,453.907121 C1072.21231,454.902345 1066.83317,455.53381 1061.42978,455.797121 C1050.32978,456.387121 1039.94978,459.547121 1030.01978,464.247121 C1010.28978,473.577121 990.639782,483.087121 970.939782,492.477121 C968.239782,493.767121 965.459782,494.917121 962.649782,495.947121 C951.829782,499.947121 941.349782,499.307121 931.419782,493.267121 C920.029782,486.337121 909.339782,478.427121 901.589782,467.427121 C898.039782,462.427121 895.519782,456.547121 893.099782,450.827121 C890.289782,444.167121 888.159782,437.207121 885.589782,430.437121 C884.858201,428.753632 883.924688,427.165316 882.809782,425.707121 C877.949782,418.707121 870.459782,417.407121 863.419782,422.217121 C858.699782,425.427121 855.519782,430.037121 852.219782,434.527121 C849.309782,438.527121 846.489782,442.527121 843.389782,446.327121 C837.729782,453.247121 830.269782,457.657121 821.879782,460.327121 C808.069782,464.697121 795.649782,471.647121 783.649782,479.627121 C778.155417,483.374838 772.275161,486.522819 766.109782,489.017121 C756.559782,492.747121 749.939782,490.247121 745.109782,481.197121 C740.925378,473.330885 737.273833,465.192583 734.179782,456.837121 C730.534093,446.911939 727.403259,436.805154 724.799782,426.557121 C723.675626,421.519428 723.338296,416.338045 723.799782,411.197121 C724.339782,402.787121 728.919782,396.197121 735.599782,391.427121 C748.049782,382.597121 761.109782,374.717121 775.249782,368.857121 C779.049782,367.287121 783.249782,366.777121 787.319782,365.797121 C787.997786,365.734138 788.667789,365.603487 789.319782,365.407121 C797.159782,361.727121 805.509782,361.147121 813.989782,361.297121 C816.109782,361.327121 818.279782,361.297121 820.449782,361.297121 Z M784.519782,369.097121 C784.359782,367.227121 782.859782,367.977121 781.639782,368.407121 C777.949782,369.677121 774.059782,370.627121 770.639782,372.467121 C760.639782,377.907121 750.729782,383.553787 740.909782,389.407121 C727.909782,397.167121 722.909782,408.687121 725.659782,423.597121 C727.940282,435.30169 731.453182,446.732022 736.139782,457.697121 C739.580532,466.08475 743.445521,474.292012 747.719782,482.287121 C750.979782,488.287121 756.419782,490.057121 763.149782,488.417121 C765.027933,488.035978 766.847162,487.40715 768.559782,486.547121 C774.849782,482.977121 781.229782,479.547121 787.219782,475.477121 C796.866248,468.893828 807.366603,463.658791 818.429782,459.917121 C824.599782,457.917121 830.619782,455.437121 835.859782,451.397121 C841.699782,446.887121 845.629782,440.787121 850.029782,435.027121 C853.599782,430.367121 857.279782,425.637121 861.639782,421.747121 C868.419782,415.687121 876.639782,416.457121 882.639782,423.237121 C884.676719,425.545357 886.312682,428.178446 887.479782,431.027121 C889.799782,436.727121 891.669782,442.617121 893.709782,448.427121 C896.029782,455.057121 898.769782,461.427121 903.039782,467.127121 C908.969782,475.017121 916.479782,481.127121 924.409782,486.897121 C929.409782,490.517121 934.589782,493.897121 940.579782,495.687121 C950.399782,498.607121 959.579782,496.067121 968.399782,491.887121 C988.119782,482.547121 1007.74978,472.997121 1027.46978,463.667121 C1036.98978,459.167121 1046.79978,455.487121 1057.46978,454.587121 C1063.51978,454.077121 1069.58978,453.587121 1075.58978,452.707121 C1085.91978,451.187121 1093.47978,445.807121 1096.58978,435.557121 C1098.02743,430.864022 1098.80818,425.994429 1098.90978,421.087121 C1099.03978,411.697121 1098.34978,402.287121 1098.14978,392.887121 C1098.06978,389.157121 1098.55978,385.407121 1098.49978,381.667121 C1098.30978,368.087121 1091.23978,359.217121 1078.06978,355.997121 C1064.65978,352.717121 1051.06978,354.097121 1037.53978,354.667121 C1030.19978,354.977121 1022.87978,355.297121 1015.69978,353.287121 C1008.16978,351.177121 1003.53978,346.287121 1003.34978,338.837121 C1003.3334,334.758786 1004.12532,330.717629 1005.67978,326.947121 C1008.42978,320.077121 1011.95978,313.527121 1015.07978,306.807121 C1017.25978,302.127121 1019.56978,297.457121 1019.07978,292.037121 C1018.72978,288.267121 1016.07978,286.397121 1012.88978,288.387121 C1009.61973,290.342662 1006.72444,292.865455 1004.33978,295.837121 C998.419782,303.777121 993.249782,312.277121 987.339782,320.197121 C982.852503,326.283821 977.901064,332.014252 972.529782,337.337121 C964.649782,345.027121 954.469782,348.337121 943.929782,350.727121 C930.159782,353.857121 916.469782,354.557121 902.599782,351.217121 C897.360159,349.930857 891.993998,349.229903 886.599782,349.127121 C879.459782,349.037121 872.709782,351.447121 866.039782,353.927121 C859.869782,356.227121 853.679782,358.467121 847.399782,360.417121 C837.779782,363.417121 827.809782,362.847121 817.899782,362.977121 C809.319782,363.087121 800.499782,361.577121 792.539782,366.727121 C790.299782,368.117121 787.359782,368.287121 784.519782,369.097121 L784.519782,369.097121 Z" id="Shape"></path>
            <path d="M322.019782,273.197121 C335.019782,273.697121 344.589782,279.937121 351.209782,290.677121 C358.269782,302.137121 361.369782,315.087121 363.589782,328.177121 C364.433619,333.755508 364.788302,339.396972 364.649782,345.037121 C364.589782,353.847121 360.479782,361.037121 354.469782,367.187121 C346.420424,375.275141 339.244265,384.187521 333.059782,393.777121 C329.122801,400.053499 324.695669,406.008727 319.819782,411.587121 C311.819782,420.587121 301.659782,424.867121 289.479782,423.587121 C276.419782,422.227121 264.029782,425.027121 251.789782,429.237121 C246.875563,431.033761 241.817295,432.408726 236.669782,433.347121 C229.489782,434.497121 223.839782,431.227121 220.339782,425.077121 C213.589782,413.207121 210.229782,400.447121 212.029782,386.707121 C213.089782,378.587121 217.159782,371.817121 222.429782,365.707121 C226.999782,360.417121 231.819782,355.337121 236.229782,349.927121 C242.059782,342.777121 245.149782,334.197121 248.399782,325.697121 C250.52045,319.916018 252.960882,314.257286 255.709782,308.747121 C259.919782,300.517121 266.519782,294.427121 274.559782,289.967121 C288.189482,282.393877 302.855228,276.858426 318.089782,273.537121 C319.3918,273.345261 320.70416,273.231723 322.019782,273.197121 L322.019782,273.197121 Z M212.909782,393.567121 C213.179782,396.217121 213.269782,398.897121 213.749782,401.497121 C215.409782,410.387121 217.569782,419.117121 223.229782,426.497121 C225.619782,429.597121 228.729782,431.907121 232.709782,431.797121 C236.760682,431.695614 240.78675,431.131964 244.709782,430.117121 C250.249782,428.657121 255.569782,426.347121 261.099782,424.827121 C268.927377,422.552391 277.038366,421.400893 285.189782,421.407121 C288.649782,421.407121 292.109782,422.267121 295.549782,422.157121 C300.49266,422.016501 305.315285,420.600716 309.549782,418.047121 C316.489782,413.887121 321.649782,407.927121 326.199782,401.397121 C330.339782,395.397121 333.959782,389.117121 338.419782,383.397121 C343.749782,376.597121 349.679782,370.267121 355.419782,363.787121 C361.909782,356.467121 364.039782,347.787121 363.419782,338.287121 C362.596532,328.231079 360.58244,318.308317 357.419782,308.727121 C355.019782,301.067121 352.259782,293.497121 346.989782,287.297121 C338.729782,277.587121 328.309782,272.637121 315.489782,275.637121 C302.758006,278.704882 290.447338,283.312148 278.829782,289.357121 C270.409782,293.657121 262.939782,299.357121 258.199782,307.697121 C255.404012,312.802426 252.964853,318.095066 250.899782,323.537121 C247.499782,332.217121 244.789782,341.257121 238.989782,348.737121 C234.409782,354.637121 229.359782,360.187121 224.409782,365.807121 C217.379782,373.767121 212.689782,382.617121 212.909782,393.567121 L212.909782,393.567121 Z" id="Shape"></path>
            <path d="M231.699782,477.807121 C231.209403,478.015078 230.690034,478.146607 230.159782,478.197121 C219.789782,477.587121 211.639782,473.097121 207.059782,463.637121 C204.146632,457.559697 201.741748,451.251475 199.869782,444.777121 C195.749782,430.777121 191.869782,416.777121 188.359782,402.597121 C186.109782,393.397121 186.289782,384.077121 190.229782,375.147121 C193.039782,368.797121 197.489782,363.637121 202.089782,358.567121 C205.779782,354.497121 209.589782,350.507121 212.929782,346.167121 C218.839782,338.487121 221.089782,329.247121 222.869782,319.987121 C223.913296,314.261733 224.45867,308.456682 224.499782,302.637121 C224.639782,291.817121 218.899782,283.637121 208.439782,280.887121 C191.149782,276.367121 173.859782,275.887121 157.169782,283.817121 C153.789782,285.427121 150.369782,286.967121 147.039782,288.687121 C139.378978,292.79144 130.454141,293.86242 122.039782,291.687121 C110.580721,288.668351 98.8619083,286.739769 87.0397824,285.927121 C86.280226,285.834445 85.5282962,285.687401 84.7897824,285.487121 L84.7897824,284.737121 C85.4157231,284.558639 86.0597904,284.451294 86.7097824,284.417121 C97.2769444,284.977203 107.762039,286.588491 118.009782,289.227121 C125.829782,291.317121 133.759782,292.467121 141.579782,289.227121 C145.593981,287.602321 149.522446,285.773265 153.349782,283.747121 C165.759782,277.097121 178.969782,275.297121 192.819782,276.557121 C199.649782,277.167121 206.429782,277.857121 212.729782,280.827121 C221.489782,284.957121 225.569782,292.257121 226.029782,301.567121 C226.699782,315.237121 223.619782,328.327121 217.869782,340.567121 C215.349782,345.947121 211.159782,350.667121 207.179782,355.207121 C201.909782,361.207121 196.109782,366.747121 192.399782,373.987121 C188.129782,382.327121 187.489782,391.197121 189.459782,400.047121 C192.149782,412.147121 195.459782,424.137121 198.799782,436.047121 C200.989782,443.807121 203.539782,451.497121 206.429782,459.047121 C210.299782,469.047121 217.429782,475.307121 228.529782,476.407121 C229.529782,476.507121 230.529782,476.777121 231.589782,476.967121 L231.699782,477.807121 Z" id="Path"></path>
            <path d="M486.18979,241.107121 C486.18979,248.357121 482.839782,254.357121 479.189782,260.307121 C476.400015,264.637949 473.923693,269.162836 471.779782,273.847121 C470.724507,276.723374 470.294948,279.791652 470.519782,282.847121 C470.989782,296.607121 470.699782,310.267121 464.029782,322.767121 C462.178185,326.293961 459.56916,329.367419 456.389782,331.767121 C448.389782,337.537121 439.019782,334.297121 435.139782,324.767121 C431.139782,314.767121 432.579782,305.217121 438.289782,296.407121 C441.289782,291.827121 445.109782,287.817121 448.589782,283.577121 C451.009782,280.577121 453.669782,277.837121 455.889782,274.727121 C460.179782,268.727121 460.689782,262.237121 457.159782,255.657121 C455.159782,251.987121 452.999782,248.447121 450.889782,244.867121 C447.828554,239.966951 446.280639,234.272712 446.439782,228.497121 C446.779782,219.677121 453.919782,213.427121 462.659782,214.657121 C475.739782,216.497121 486.199782,228.257121 486.18979,241.107121 Z M469.439782,273.527121 C473.369782,266.957121 477.149782,260.707121 480.859782,254.407121 C485.035277,247.509293 485.67876,239.036036 482.592827,231.586755 C479.506894,224.137474 473.059953,218.601491 465.229782,216.677121 C456.089782,214.277121 449.519782,218.547121 448.059782,227.807121 C447.329782,232.377121 448.569782,236.617121 450.549782,240.587121 C453.199782,245.867121 456.309782,250.907121 459.019782,256.157121 C461.369782,260.727121 462.129782,265.727121 459.749782,270.357121 C457.483113,274.682937 454.75381,278.750067 451.609782,282.487121 C446.609782,288.557121 440.609782,293.867121 437.379782,301.307121 C433.809782,309.527121 433.179782,317.767121 437.439782,325.877121 C441.699782,333.987121 450.689782,335.597121 457.239782,329.227121 C460.032348,326.49928 462.291049,323.274017 463.899782,319.717121 C469.329782,307.507121 469.639782,294.537121 468.739782,281.467121 C468.549782,278.757121 468.189782,276.067121 467.869782,273.057121 L469.439782,273.527121 Z" id="Shape"></path>
            <path d="M555.459782,460.467121 C554.849782,460.937121 554.269782,461.767121 553.639782,461.817121 C545.259782,462.427121 537.559782,459.077121 538.849782,447.527121 C539.739782,439.527121 543.749782,433.157121 548.349782,426.947121 C552.169782,421.807121 555.859782,416.557121 559.709782,411.447121 C561.429688,409.100027 563.321559,406.88393 565.369782,404.817121 C569.276766,400.84237 574.647364,398.650732 580.219782,398.757121 C591.619782,398.857121 602.339782,401.447121 611.949782,407.757121 C620.689782,413.477121 622.879782,421.617121 618.479782,431.177121 C613.929782,441.077121 606.229782,447.387121 596.049782,450.827121 C582.84892,455.295425 569.260068,458.522736 555.459782,460.467121 L555.459782,460.467121 Z M619.069782,422.827121 C619.298348,418.011616 617.112005,413.398919 613.239782,410.527121 C607.159782,405.707121 600.049782,403.107121 592.559782,401.597121 C588.873943,400.947804 585.149107,400.543584 581.409782,400.387121 C573.639782,399.867121 567.719782,403.387121 563.179782,409.387121 C557.899782,416.387121 552.869782,423.507121 547.649782,430.517121 C543.882898,435.332547 541.426572,441.041007 540.519782,447.087121 C540.274648,449.475644 540.426704,451.888274 540.969782,454.227121 C541.559782,456.957121 544.809782,459.687121 546.699782,459.497121 C549.089782,459.257121 551.469782,458.907121 553.849782,458.657121 C567.277437,457.22201 580.51489,454.366018 593.339782,450.137121 C600.059782,447.937121 606.399782,445.137121 611.159782,439.567121 C615.559782,434.437121 618.629782,428.767121 619.069782,422.827121 L619.069782,422.827121 Z" id="Shape"></path>
            <path d="M974.209782,227.887121 C960.009782,227.107121 947.209782,223.297121 936.809782,213.247121 C935.462623,211.886083 934.265742,210.384114 933.239782,208.767121 C928.039782,200.877121 930.239782,192.037121 938.629782,187.577121 C944.377718,184.6441 950.827801,183.366547 957.259782,183.887121 C968.629782,184.557121 979.209782,187.777121 988.409782,194.707121 C992.479782,197.777121 996.119782,201.357121 997.909782,206.337121 C1000.38978,213.197121 998.629782,218.713787 992.629782,222.887121 C988.783958,225.410706 984.379369,226.955573 979.799782,227.387121 C977.859782,227.627121 975.949782,227.737121 974.209782,227.887121 Z M956.479782,185.347121 C949.159782,185.527121 942.939782,186.427121 937.479782,190.147121 C933.859782,192.607121 931.889782,195.947121 932.099782,200.477121 C932.369782,206.297121 935.699782,210.417121 939.769782,213.967121 C946.579782,219.917121 954.699782,223.307121 963.469782,225.077121 C971.919782,226.787121 980.359782,226.997121 988.469782,223.427121 C992.939782,221.427121 996.469782,218.517121 997.279782,213.427121 C998.109782,208.097121 995.619782,203.847121 992.119782,200.207121 C982.169782,189.787121 969.419782,186.197121 956.479782,185.347121 Z" id="Shape"></path>
            <path d="M661.449782,89.7471206 C666.488338,89.790783 671.367383,91.5192183 675.309782,94.6571206 C681.879782,100.047121 681.989782,108.547121 675.579782,114.107121 C667.939782,120.727121 654.139782,120.807121 646.359782,114.287121 C639.479782,108.507121 639.999782,99.2271206 647.539782,93.8471206 C651.539782,90.9971206 656.069782,89.7971206 661.449782,89.7471206 Z M660.919782,91.3571206 C656.637024,91.2511691 652.422408,92.4433931 648.829782,94.7771206 C641.459782,99.2871206 641.079782,108.887121 648.249782,113.667121 C655.739782,118.667121 663.769782,119.027121 671.699782,114.907121 C680.799782,110.177121 681.119782,100.117121 672.569782,94.5171206 C669.07939,92.3463501 665.028686,91.2476184 660.919782,91.3571206 L660.919782,91.3571206 Z" id="Shape"></path>
            <path d="M627.699782,152.627121 C627.239782,161.167121 623.699782,168.077121 616.289782,172.467121 C607.779782,177.467121 599.289782,172.857121 599.189782,162.957121 C599.049782,153.727121 603.039782,146.287121 611.129782,141.607121 C619.429782,136.807121 627.589782,141.767121 627.699782,151.377121 L627.699782,152.627121 Z M600.629782,162.307121 C600.799782,163.307121 600.899782,164.597121 601.209782,165.787121 C602.609782,171.117121 605.909782,173.457121 611.329782,172.707121 C612.974347,172.486422 614.550987,171.909686 615.949782,171.017121 C622.749782,166.597121 626.019782,160.017121 626.289782,152.127121 C626.429782,148.127121 625.289782,144.377121 621.449782,142.357121 C617.609782,140.337121 613.809782,141.437121 610.449782,143.847121 C604.159782,148.297121 601.149782,154.537121 600.629782,162.307121 Z" id="Shape"></path>
            <path d="M905.929782,412.197121 C906.339782,401.827121 907.029782,394.407121 911.099782,387.737121 C914.298541,382.713064 918.892651,378.730576 924.319782,376.277121 C931.579782,372.747121 938.999782,369.557121 946.399782,366.277121 C951.509782,364.047121 956.609782,361.747121 961.859782,359.907121 C973.089782,355.977121 983.139782,359.227121 992.619782,365.437121 C996.169782,367.757121 999.849782,369.887121 1003.39978,372.217121 C1011.32978,377.397121 1020.08978,377.917121 1029.13978,377.037121 C1033.52978,376.607121 1037.90978,376.177121 1042.29978,375.797121 C1043.21585,375.742184 1044.13519,375.792513 1045.03978,375.947121 C1053.18978,377.167121 1056.40978,382.267121 1053.78978,390.087121 C1051.21978,397.747121 1045.93978,403.517121 1039.42978,407.857121 C1032.10978,412.737121 1024.33978,416.957121 1016.66978,421.297121 C1010.92978,424.547121 1004.86978,427.467121 1000.66978,432.697121 C997.070965,437.377847 993.796651,442.299341 990.869782,447.427121 C986.579782,454.677121 982.309782,461.927121 975.989782,467.667121 C973.479782,469.937121 970.989782,472.497121 968.109782,474.057121 C964.579782,475.927121 960.459782,476.057121 956.439782,475.667121 C950.00055,475.179639 943.810987,472.969081 938.519782,469.267121 C932.154834,464.885473 926.044917,460.144444 920.219782,455.067121 C914.101226,449.515362 910.09121,442.01822 908.869782,433.847121 C907.539782,425.777121 906.629782,417.587121 905.929782,412.197121 Z M907.549782,408.667121 C907.799782,412.667121 907.759782,416.057121 908.259782,419.337121 C909.259782,425.827121 910.109782,432.337121 911.829782,438.697121 C914.109782,447.007121 919.699782,453.247121 926.219782,458.697121 C932.519782,463.937121 939.219782,468.697121 946.779782,471.847121 C952.909782,474.377121 959.399782,475.557121 965.779782,472.927121 C971.062662,470.73765 975.625488,467.110255 978.949782,462.457121 C983.269782,456.457121 987.299782,450.217121 991.069782,443.857121 C995.449782,436.467121 1000.16978,429.437121 1007.66978,424.857121 C1012.36978,422.007121 1017.36978,419.667121 1022.05978,416.857121 C1028.72978,412.797121 1035.45978,408.767121 1041.73978,404.137121 C1046.94555,400.387183 1050.77242,395.028149 1052.62978,388.887121 C1054.39978,383.037121 1052.00978,379.017121 1046.06978,377.747121 C1044.85472,377.463644 1043.60581,377.352555 1042.35978,377.417121 C1037.87978,377.757121 1033.35978,378.197121 1028.92978,378.637121 C1020.58978,379.467121 1012.40978,379.147121 1004.92978,374.757121 C1000.12312,371.923787 995.363116,369.013787 990.649782,366.027121 C980.929782,359.867121 970.649782,357.647121 959.739782,362.267121 C948.469782,367.037121 937.169782,371.767121 926.089782,376.987121 C916.549782,381.477121 909.949782,388.697121 908.469782,399.637121 C908.019782,402.887121 907.799782,406.117121 907.549782,408.667121 L907.549782,408.667121 Z" id="Shape"></path>
            <path d="M835.279782,399.747121 C835.129782,408.527121 833.959782,415.667121 830.529782,422.207121 C826.399782,430.077121 819.529782,435.027121 811.709782,438.687121 C806.635667,441.001767 801.437776,443.034854 796.139782,444.777121 C787.976685,447.573613 780.84176,452.757581 775.659782,459.657121 C772.739782,463.407121 766.099782,464.387121 762.229782,461.527121 C760.260132,460.144686 758.592874,458.375351 757.329782,456.327121 C751.979464,447.249916 748.838282,437.041928 748.159782,426.527121 C747.589782,416.467121 750.739782,407.727121 758.619782,400.927121 C768.059782,392.787121 777.729782,384.927121 789.979782,381.527121 C801.659782,378.247121 813.319782,378.167121 824.529782,383.767121 C831.739782,387.367121 836.079782,392.667121 835.279782,399.747121 Z M833.809782,399.077121 C834.649782,393.247121 830.529782,388.277121 823.549782,385.077121 C808.309782,378.077121 793.469782,379.907121 779.249782,387.767121 C773.409121,391.139425 767.868776,395.006961 762.689782,399.327121 C756.799782,404.067121 751.749782,409.567121 750.429782,417.547121 C748.049782,431.827121 752.259782,444.667121 759.429782,456.547121 C763.579782,463.397121 770.539782,463.167121 775.829782,456.947121 C780.299782,451.687121 785.409782,447.247121 792.019782,444.777121 C797.709782,442.647121 803.389782,440.497121 809.019782,438.197121 C816.291993,435.377334 822.630706,430.580002 827.319782,424.347121 C832.359782,417.567121 833.299782,409.537121 833.809782,399.077121 L833.809782,399.077121 Z" id="Shape"></path>
            <path d="M339.229782,334.347121 C338.636919,343.433081 336.056147,352.278026 331.669782,360.257121 C326.409782,369.817121 321.159782,379.377121 315.819782,388.887121 C314.585013,391.060199 313.177123,393.130233 311.609782,395.077121 C304.069782,404.477121 294.709782,406.237121 282.839782,401.767121 C278.569782,400.157121 274.299782,399.767121 269.909782,399.437121 C265.269782,399.097121 260.559782,399.137121 255.989782,398.367121 C245.459782,396.587121 240.529782,389.177121 242.349782,378.637121 C243.729782,370.637121 247.769782,363.817121 252.409782,357.357121 C261.059782,345.357121 269.739782,333.247121 280.649782,323.087121 C290.039782,314.337121 300.759782,308.087121 313.819782,306.497121 C324.309782,305.197121 333.189782,310.397121 336.339782,320.497121 C337.739782,324.977121 338.289782,329.727121 339.229782,334.347121 Z M337.489782,334.247121 C336.789782,330.247121 336.389782,326.167121 335.339782,322.247121 C332.649782,312.117121 324.339782,306.817121 313.979782,308.027121 C304.699782,309.097121 296.559782,312.877121 289.039782,318.187121 C281.14786,323.942329 274.201158,330.892405 268.449782,338.787121 C261.629782,347.787121 254.959782,356.967121 248.589782,366.327121 C245.442445,370.900767 243.704173,376.296365 243.589782,381.847121 C243.429782,390.117121 247.239782,395.157121 255.399782,396.647121 C259.869782,397.467121 264.509782,397.367121 269.049782,397.847121 C274.179782,398.387121 279.279782,399.077121 284.389782,399.787121 C285.275452,399.995009 286.134387,400.303688 286.949782,400.707121 C288.218303,401.375115 289.560813,401.891981 290.949782,402.247121 C300.879782,403.577121 307.949782,398.907121 312.719782,390.777121 C319.399782,379.347121 325.719782,367.677121 331.909782,355.997121 C335.519782,349.287121 337.029782,341.957121 337.489782,334.247121 L337.489782,334.247121 Z" id="Shape"></path>
            <path d="M979.739782,402.377121 C979.799782,409.587121 977.309782,416.257121 975.349782,423.037121 C973.389782,429.817121 970.799782,436.427121 966.349782,442.107121 C962.939782,446.477121 958.559782,449.007121 953.249782,450.667121 C948.919782,452.017121 945.489782,450.977121 942.249782,448.607121 C931.789782,440.857121 925.249782,430.877121 925.539782,417.357121 C925.789782,404.357121 933.959782,389.647121 948.539782,385.577121 C953.539782,384.177121 958.609782,382.657121 963.739782,381.707121 C970.019782,380.547121 975.069782,383.477121 977.139782,389.477121 C978.559782,393.597121 979.249782,397.967121 980.269782,402.217121 L979.739782,402.377121 Z M978.659782,402.377121 C977.809782,398.497121 977.259782,394.527121 976.049782,390.767121 C974.109782,384.697121 969.489782,381.957121 963.219782,383.337121 C957.469782,384.587121 951.819782,386.337121 946.219782,388.157121 C940.879782,389.887121 936.879782,393.587121 933.729782,398.157121 C922.729782,413.897121 925.499782,433.017121 941.199782,445.977121 C943.113337,447.689377 945.469585,448.829385 947.999782,449.267121 C954.729782,449.927121 960.339782,447.267121 964.599782,441.927121 C968.690858,436.645576 971.695334,430.606036 973.439782,424.157121 C975.509782,416.977121 978.209782,410.017121 978.629782,402.337121 L978.659782,402.377121 Z" id="Shape"></path>
            <path d="M300.859782,330.307121 C307.850026,330.167238 314.009882,334.875276 315.709782,341.657121 C317.919782,350.007121 316.999782,358.207121 314.029782,366.137121 C312.511032,370.432758 310.497486,374.537037 308.029782,378.367121 C304.109782,384.187121 297.769782,385.957121 291.029782,383.937121 C284.424889,382.086607 278.913792,377.523366 275.863802,371.379542 C272.813812,365.235718 272.510741,358.087046 275.029782,351.707121 C279.209782,340.527121 286.899782,332.997121 298.929782,330.527121 C299.568975,330.421151 300.213139,330.347723 300.859782,330.307121 L300.859782,330.307121 Z M315.049924,349.177121 C315.049924,348.347121 315.049924,347.517121 315.049924,346.677121 C314.559782,335.077121 305.229782,328.947121 294.479782,333.237121 C288.136504,335.722982 282.802276,340.251446 279.319782,346.107121 C270.619782,360.467121 274.889782,375.307121 289.539782,381.777121 C296.539782,384.887121 303.259782,383.077121 307.489782,376.667121 C312.969782,368.357121 315.069782,359.037121 315.049924,349.177121 Z" id="Shape"></path>
        </g>
    </g>
</svg>